<svg width="227" height="164" viewBox="0 0 227 164" fill="none" xmlns="http://www.w3.org/2000/svg">
<g clip-path="url(#clip0_1_1502)">
<path d="M7.55273 81.9994L113.5 5.45117L219.461 81.9994L113.5 158.548L7.55273 81.9994Z" fill="white"/>
<path d="M103.7 30.1159C103.7 29.8657 103.54 29.7867 103.328 29.9316L94.7512 36.1207C94.5518 36.2656 94.3789 36.5816 94.3789 36.8318V127.167C94.3789 127.418 94.5385 127.734 94.7512 127.879L103.328 134.081C103.527 134.226 103.7 134.147 103.7 133.897V30.1159Z" fill="#393839"/>
<path d="M226.748 81.5667L217.64 74.9824C217.307 74.7454 216.749 74.3372 216.416 74.1002L119.59 4.14929C119.258 3.91226 118.7 3.50404 118.38 3.26701L114.112 0.185587C113.78 -0.0514456 113.221 -0.0514456 112.889 0.185587L108.621 3.26701C108.288 3.50404 107.743 3.91226 107.411 4.14929L10.5847 74.1002C10.2523 74.3372 9.69382 74.7454 9.36141 74.9824L0.253218 81.5667C-0.0791977 81.8037 -0.0791977 82.1988 0.253218 82.449L9.36141 89.0332C9.69382 89.2702 10.239 89.6653 10.5847 89.9155L107.411 159.866C107.743 160.103 108.288 160.498 108.621 160.749L112.889 163.83C113.221 164.067 113.78 164.067 114.112 163.83L118.38 160.749C118.713 160.512 119.271 160.103 119.59 159.866L216.43 89.9155C216.762 89.6784 217.307 89.2702 217.653 89.0332L226.761 82.449C227.094 82.2119 227.094 81.8037 226.761 81.5667H226.748ZM114.312 152.255L114.112 152.4C113.78 152.637 113.221 152.637 112.889 152.4L20.0519 85.3329L15.4513 82.0012L20.5173 78.3404L113.501 11.1681L206.75 78.5379L211.55 82.0012L206.723 85.4909L114.298 152.255H114.312Z" fill="#393839"/>
<path d="M177.031 84.0539L163.162 94.0751L161.194 95.4973V57.796C161.194 57.3878 160.915 56.8479 160.583 56.6108L152.498 50.764C152.166 50.527 151.887 50.6587 151.887 51.0669V112.893C151.887 113.301 152.166 113.446 152.498 113.196L177.031 95.471C177.363 95.2208 177.642 94.694 177.642 94.2858V84.3568C177.642 83.9486 177.363 83.8037 177.031 84.0539Z" fill="#393839"/>
<path d="M141.902 43.1005L113.7 22.7289C113.367 22.4918 113.088 22.6235 113.088 23.0317V140.376C113.088 140.784 113.181 141.192 113.287 141.271C113.407 141.35 113.766 141.219 114.098 140.982L121.771 135.438C122.103 135.201 122.382 134.661 122.382 134.253V97.8418H133.179V126.444C133.179 126.852 133.445 126.997 133.791 126.747L141.888 120.9C142.221 120.663 142.5 120.123 142.5 119.715V44.2856C142.5 43.8774 142.221 43.3375 141.888 43.1005H141.902ZM122.396 88.6107V40.4273L133.192 48.2362V88.6107H122.396Z" fill="#393839"/>
<path d="M84.4472 43.5736L75.8708 49.7627C75.5384 49.9998 75.1395 50.5133 74.9933 50.8952L67.4275 70.4109L67.0685 71.3458L66.7493 70.5294L62.7205 60.1527C62.5742 59.7708 62.1753 59.6523 61.8429 59.8893L49.6898 68.6726C49.3574 68.9097 49.0781 69.4496 49.0781 69.8578V94.1009C49.0781 94.5092 49.3574 95.0491 49.6898 95.2861L57.7741 101.133C58.1065 101.37 58.3858 101.238 58.3858 100.83V74.6643L67.0685 97.0507L70.5256 88.1356L75.0996 76.3499L75.7512 74.6511V113.353C75.7512 113.761 76.0304 114.301 76.3628 114.538L84.4472 120.385C84.7796 120.622 85.0588 120.491 85.0588 120.082V43.8501C85.0588 43.4419 84.7796 43.297 84.4472 43.5472V43.5736Z" fill="#393839"/>
</g>
<defs>
<clipPath id="clip0_1_1502">
<rect width="227" height="164" fill="white"/>
</clipPath>
</defs>
</svg>
